<?xml version="1.0" encoding="utf-8"?>
<!-- Generator: Adobe Illustrator 24.1.1, SVG Export Plug-In . SVG Version: 6.00 Build 0)  -->
<svg version="1.1" id="Layer_1" xmlns="http://www.w3.org/2000/svg" xmlns:xlink="http://www.w3.org/1999/xlink" x="0px" y="0px"
	 viewBox="0 0 1920 1080" style="enable-background:new 0 0 1920 1080;" xml:space="preserve">
<style type="text/css">
	.st0{fill:#0099FF;}
</style>
<g>
	<path class="st0" d="M460.42,511.12c10.01,0,18.65,4.24,25.91,12.71l24.93-21.95c-5.94-7.26-13.4-12.79-22.37-16.59
		c-8.97-3.8-19.12-5.69-30.45-5.69c-12.66,0-23.93,2.59-33.84,7.76c-9.9,5.17-17.64,12.46-23.19,21.87
		c-5.56,9.41-8.33,20.16-8.33,32.27c0,12.33,2.58,22.92,7.76,31.77c5.17,8.86,12.19,15.6,21.04,20.22
		c8.86,4.62,18.74,6.93,29.63,6.93c12.98,0,23.33-3.24,31.03-9.74v7.1h25.42v-60.91h-33.84v27.73c-4.73,3.3-10.46,4.95-17.17,4.95
		c-7.26,0-13.18-2.37-17.74-7.1c-4.57-4.73-6.85-11.83-6.85-21.29c0-9.46,2.5-16.84,7.51-22.12
		C444.87,513.76,451.72,511.12,460.42,511.12z"/>
	<path class="st0" d="M619.04,547.43c3.74-6.16,5.61-13.37,5.61-21.62c0-8.8-2.15-16.51-6.44-23.11
		c-4.29-6.6-10.4-11.66-18.32-15.19c-7.92-3.52-17.22-5.28-27.89-5.28h-55.63v115.54h38.95v-29.05h10.56l19.65,29.05h41.59
		l-24.26-35.65C609.91,558.49,615.3,553.59,619.04,547.43z M581.41,535.79c-2.64,2.37-6.6,3.55-11.88,3.55h-14.19v-27.07h14.19
		c5.28,0,9.24,1.18,11.88,3.55c2.64,2.37,3.96,5.69,3.96,9.99C585.37,530.1,584.05,533.43,581.41,535.79z"/>
	<path class="st0" d="M725.17,487.35c-9.9-5.17-21.08-7.76-33.51-7.76c-12.44,0-23.6,2.59-33.51,7.76
		c-9.9,5.17-17.66,12.35-23.28,21.54c-5.61,9.19-8.42,19.56-8.42,31.12c0,11.55,2.81,21.93,8.42,31.11
		c5.61,9.19,13.37,16.37,23.28,21.54c9.9,5.17,21.07,7.76,33.51,7.76c12.43,0,23.6-2.59,33.51-7.76
		c9.9-5.17,17.66-12.35,23.28-21.54c5.61-9.19,8.42-19.56,8.42-31.11c0-11.55-2.81-21.93-8.42-31.12
		C742.84,499.7,735.08,492.52,725.17,487.35z M714.11,555.27c-2.31,4.35-5.42,7.7-9.33,10.07c-3.91,2.37-8.28,3.55-13.12,3.55
		c-4.84,0-9.22-1.18-13.12-3.55c-3.91-2.37-7.02-5.72-9.33-10.07c-2.31-4.35-3.47-9.43-3.47-15.27c0-5.83,1.15-10.92,3.47-15.27
		c2.31-4.35,5.42-7.7,9.33-10.07c3.91-2.37,8.28-3.55,13.12-3.55c4.84,0,9.22,1.18,13.12,3.55c3.91,2.37,7.02,5.72,9.33,10.07
		c2.31,4.35,3.47,9.44,3.47,15.27C717.58,545.84,716.43,550.92,714.11,555.27z"/>
	<path class="st0" d="M835.43,546.6c0,7.26-1.68,12.79-5.03,16.59c-3.36,3.8-7.62,5.69-12.79,5.69c-5.28,0-9.41-1.73-12.38-5.2
		c-2.97-3.47-4.46-8.72-4.46-15.76v-54.75c0-6.04-4.9-10.94-10.94-10.94h-28.01v66.85c0,16.4,3.74,29.05,11.22,37.96
		c7.48,8.91,17.99,13.37,31.53,13.37c13.54,0,24.21-5.01,32.02-15.02v12.38h37.8V482.23h-38.95V546.6z"/>
	<path class="st0" d="M968.47,487.51c-7.92-3.52-17.22-5.28-27.89-5.28h-55.63v115.54h38.95v-28.39h16.67
		c10.67,0,19.97-1.76,27.89-5.28c7.92-3.52,14.03-8.58,18.32-15.19c4.29-6.6,6.44-14.3,6.44-23.11c0-8.8-2.15-16.51-6.44-23.11
		C982.5,496.09,976.39,491.03,968.47,487.51z M949.98,535.79c-2.64,2.37-6.6,3.55-11.88,3.55h-14.2v-27.07h14.2
		c5.28,0,9.24,1.18,11.88,3.55c2.64,2.37,3.96,5.69,3.96,9.99C953.95,530.1,952.63,533.43,949.98,535.79z"/>
	<polygon class="st0" points="1130.56,511.61 1147.89,511.61 1147.89,567.67 1079.56,567.57 1079.56,482.23 1040.6,482.23 
		1040.6,597.77 1130.56,597.77 1131.72,597.77 1204.18,597.77 1204.18,568.39 1186.85,568.39 1186.85,511.61 1204.18,511.61 
		1204.18,482.23 1130.56,482.23 	"/>
	<path class="st0" d="M1281.26,479.59c-13.76,0-24.54,5.01-32.35,15.02v-12.38h-37.8v115.54h38.95V533.4
		c0-7.37,1.67-12.93,5.03-16.67c3.36-3.74,7.73-5.61,13.12-5.61c5.39,0,9.6,1.73,12.63,5.2c3.03,3.47,4.54,8.72,4.54,15.76v55.64
		c0,5.55,4.5,10.05,10.05,10.05h28.9v-66.85c0-16.4-3.77-29.05-11.3-37.96C1305.5,484.04,1294.9,479.59,1281.26,479.59z"/>
	<polygon class="st0" points="1452.59,482.23 1410.18,482.23 1372.21,524.15 1372.21,482.23 1333.92,482.23 1333.92,597.77 
		1372.21,597.77 1372.21,569.22 1380.96,559.48 1409.84,597.77 1454.91,597.77 1406.38,533.07 	"/>
	<polygon class="st0" points="1526.84,481.9 1518.75,481.9 1509.49,497.47 1499.97,481.9 1492.46,481.9 1491.88,481.9 1465.5,481.9 
		1465.5,489.54 1474.06,489.54 1474.06,511.12 1483.91,511.12 1483.91,489.54 1491.88,489.54 1491.88,511.12 1500.85,511.12 
		1500.85,498.26 1507.19,508.49 1511.53,508.49 1517.87,497.8 1517.96,511.12 1526.93,511.12 	"/>
</g>
</svg>
